# xmcd CD database file
#
# Track frame offsets:
#	183
#	2318
#	17008
#	41250
#	59765
#	71348
#	86115
#	101543
#	125735
#
# Disc length: 1927 seconds
#
# Revision: 2
# Processed by: cddbd v1.4b41PL1 Copyright (c) Steve Scherf et al.
# Submitted via: Feurio! 1.50.2ß - http://www.feurio.com
#
DISCID=6c078509
DTITLE=James Brown And Friends - Soul Session Live
DYEAR=1900
DGENRE=
TTITLE0=Show Intro
TTITLE1=Papa`s Got Brand New Bag
TTITLE2=How Do You Stop
TTITLE3=Cold Sweat
TTITLE4=Out Of Sight
TTITLE5=I`ll Go Crazy
TTITLE6=I Feel Good
TTITLE7=Try Me
TTITLE8=Living In America
EXTD=
EXTT0=
EXTT1=
EXTT2=
EXTT3=
EXTT4=
EXTT5=
EXTT6=
EXTT7=
EXTT8=
PLAYORDER=
